PathFileType	4	(X/Y/Z)	/Users/itak/Documents/Research/Walk-IL/dataset/trc/00581_00009.trc
DataRate	CameraRate	NumFrames	NumMarkers	Units	OrigDataRate	OrigDataStartFrame	OrigNumFrames
100.000000	100.000000	4	53	mm	100.000000	328	525
Frame#	Time	RPSI			LPSI			L3			STRN			T10			C7			CLAV			RBAK			LBAK			LSHO			LUPA			LAEL			LAOL			LWTS			LWPS			LFRA			LIFD			LHPS			LHTS			RSHO			RUPA			RAEL			RAOL			RWTS			RWPS			RFRA			RIFD			RHPS			RBHD			RFHD			LBHD			LHIP			RHIP			RASI			LASI			LKNE			LTHI			LANK			LTIP			LTOE			LMT1			LMT5			LHEE			RKNE			RTHI			RANK			RTIP			RTOE			RMT1			RMT5			RHEE			RHTS			LFHD			
		X1	Y1	Z1	X2	Y2	Z2	X3	Y3	Z3	X4	Y4	Z4	X5	Y5	Z5	X6	Y6	Z6	X7	Y7	Z7	X8	Y8	Z8	X9	Y9	Z9	X10	Y10	Z10	X11	Y11	Z11	X12	Y12	Z12	X13	Y13	Z13	X14	Y14	Z14	X15	Y15	Z15	X16	Y16	Z16	X17	Y17	Z17	X18	Y18	Z18	X19	Y19	Z19	X20	Y20	Z20	X21	Y21	Z21	X22	Y22	Z22	X23	Y23	Z23	X24	Y24	Z24	X25	Y25	Z25	X26	Y26	Z26	X27	Y27	Z27	X28	Y28	Z28	X29	Y29	Z29	X30	Y30	Z30	X31	Y31	Z31	X32	Y32	Z32	X33	Y33	Z33	X34	Y34	Z34	X35	Y35	Z35	X36	Y36	Z36	X37	Y37	Z37	X38	Y38	Z38	X39	Y39	Z39	X40	Y40	Z40	X41	Y41	Z41	X42	Y42	Z42	X43	Y43	Z43	X44	Y44	Z44	X45	Y45	Z45	X46	Y46	Z46	X47	Y47	Z47	X48	Y48	Z48	X49	Y49	Z49	X50	Y50	Z50	X51	Y51	Z51	X52	Y52	Z52	X53	Y53	Z53	

329	3.28	-5.294636726379395	990.7568969726562	521.7582397460938	-14.74463176727295	987.9122314453125	388.798828125	-1.442718863487244	1089.067993164062	453.35888671875	232.8133850097656	1271.14111328125	414.3722534179688	-8.152006149291992	1214.029663085938	454.0917053222656	48.19895553588867	1487.51123046875	460.8322448730469	214.6954040527344	1382.613647460938	415.6629028320312	-9.088642120361328	1364.162963867188	558.455078125	-5.176547527313232	1435.193115234375	378.9516296386719	72.28240966796875	1457.421630859375	276.5627136230469	33.89031982421875	1329.999877929688	206.9237060546875	21.38775634765625	1111.518920898438	185.0213928222656	-36.15666198730469	1108.094116210938	267.96533203125	107.4937896728516	862.0857543945312	190.6947326660156	34.92926406860352	846.1325073242188	144.4046478271484	33.3869514465332	1024.826171875	168.91357421875	78.67571258544922	695.4853515625	199.6498413085938	38.02652359008789	785.4151611328125	150.3227233886719	103.8604507446289	782.3453369140625	169.1851196289062	133.7160949707031	1446.137939453125	601.4848022460938	128.1173858642578	1381.062866210938	670.1609497070312	140.7485809326172	1093.149291992188	719.0194091796875	81.08963012695312	1074.665405273438	703.4990844726562	266.4536437988281	870.7273559570312	659.7551879882812	236.6136779785156	854.09619140625	733.927001953125	153.3850708007812	1038.282592773438	725.677734375	257.8291320800781	708.1431274414062	657.061279296875	251.7719879150391	780.411376953125	732.87255859375	166.8468780517578	1668.653686523438	509.0028686523438	300.3040771484375	1672.833129882812	465.3842163085938	132.3595581054688	1664.496948242188	347.23486328125	110.6091995239258	909.4794311523438	255.783203125	126.4289093017578	919.6469116210938	632.897705078125	209.0903930664062	949.9811401367188	577.4434814453125	189.0658264160156	939.7518920898438	302.8806762695312	271.3088989257812	495.0614929199219	343.0599975585938	212.8634796142578	648.1122436523438	293.9413757324219	234.5515899658203	34.23772430419922	439.7920837402344	240.042724609375	242.1260986328125	393.4035339355469	453.1912231445312	45.40262985229492	412.7047729492188	397.5070495605469	45.96608734130859	470.4718627929688	341.9238891601562	40.19854736328125	381.2802734375	194.5182800292969	34.60977935791016	516.3858642578125	108.3894577026367	481.0408935546875	627.0496215820312	152.9413452148438	768.1914672851562	637.002685546875	-260.3850708007812	159.7576751708984	599.3713989257812	23.99168014526367	359.5694274902344	618.8069458007812	-89.51419067382812	35.71215057373047	570.1014404296875	-130.0644683837891	75.43190002441406	524.5303344726562	-171.2400512695312	67.40499114990234	619.2927856445312	-296.1337280273438	196.9449920654297	540.9807739257812	296.2324523925781	778.7377319335938	673.5681762695312	264.7564392089844	1671.484130859375	325.6722412109375	
330	3.29	2.93465256690979	990.6209106445312	521.5569458007812	-7.563547611236572	988.4365844726562	388.6322631835938	6.429319858551025	1089.496948242188	452.898193359375	240.0315551757812	1271.857543945312	412.290283203125	-0.3670734763145447	1214.461059570312	453.5262451171875	55.46866226196289	1488.04296875	460.0665588378906	221.8037414550781	1383.316162109375	413.8206481933594	-1.113860368728638	1364.509033203125	557.8268432617188	1.712718725204468	1435.730590820312	378.4330444335938	78.51348114013672	1458.077392578125	275.5903625488281	39.92665863037109	1330.6767578125	206.018798828125	27.56193542480469	1112.177124023438	183.6578674316406	-29.52515411376953	1108.592529296875	266.8980407714844	113.5722503662109	862.6320190429688	188.8197784423828	40.90769958496094	846.7661743164062	142.7085418701172	39.47372817993164	1025.4384765625	167.3910217285156	84.69601440429688	696.0970458984375	197.95556640625	43.94085693359375	786.032958984375	148.6882476806641	109.8326034545898	782.8973388671875	167.3678588867188	141.8805084228516	1446.613403320312	600.1640014648438	136.7303619384766	1381.429321289062	668.8202514648438	149.8738861083984	1093.391235351562	717.15576171875	90.05657196044922	1075.0224609375	702.2853393554688	274.7226257324219	871.1083984375	656.1931762695312	245.7347412109375	854.2222900390625	730.5535888671875	162.5892181396484	1038.541381835938	723.6229858398438	266.4786987304688	708.5979614257812	652.9157104492188	261.0919189453125	780.5581665039062	729.093505859375	174.5139770507812	1669.413452148438	507.4003601074219	307.4982604980469	1673.835571289062	462.4725341796875	138.4345092773438	1665.119750976562	345.9821166992188	116.385383605957	910.0330200195312	254.2359466552734	137.0063934326172	919.6372680664062	630.8787841796875	218.2898254394531	950.7463989257812	574.9178466796875	195.4504241943359	940.3786010742188	300.5733642578125	274.8818054199219	494.6003723144531	342.1791687011719	217.3357086181641	647.9501342773438	292.9632263183594	234.7203216552734	34.43093109130859	439.885009765625	241.7108306884766	242.0866088867188	393.2314453125	453.5919494628906	44.4134635925293	412.9994506835938	397.772216796875	45.46859359741211	470.5741577148438	342.0950927734375	40.22532653808594	381.2814331054688	194.5652465820312	34.71846389770508	516.4368286132812	126.971321105957	480.7971496582031	626.884765625	165.4657135009766	768.73095703125	635.3018798828125	-248.9417877197266	169.0559234619141	605.7805786132812	41.07123184204102	360.4690856933594	619.595703125	-82.69757080078125	36.93930435180664	572.3064575195312	-123.3719787597656	79.86515045166016	527.6851806640625	-162.2651214599609	73.70633697509766	623.4642944335938	-285.2503967285156	207.2189788818359	548.5164794921875	304.9625854492188	779.279052734375	669.2918701171875	270.6139221191406	1672.364379882812	323.1095275878906	
331	3.3	11.11746788024902	990.5437622070312	521.4899291992188	-0.5445933938026428	988.948974609375	388.6329956054688	14.15482711791992	1089.944458007812	452.5430603027344	247.0494995117188	1272.572998046875	410.1626281738281	7.180364608764648	1214.91943359375	453.0054016113281	62.59257888793945	1488.584228515625	459.3036499023438	228.73828125	1384.008666992188	411.9669494628906	6.662277221679688	1364.874877929688	557.1519165039062	8.45687198638916	1436.313842773438	377.8974304199219	84.60409545898438	1458.775756835938	274.6117553710938	45.80490875244141	1331.408569335938	205.0884552001953	33.63139724731445	1112.8974609375	182.2648315429688	-23.07304191589355	1109.121948242188	265.7680053710938	119.8396987915039	863.4129028320312	186.8623962402344	47.06951141357422	847.465087890625	140.9743804931641	45.52521896362305	1026.13330078125	165.835205078125	91.33899688720703	696.8627319335938	196.1278076171875	50.21965026855469	786.725830078125	146.9704437255859	116.1613693237305	783.706298828125	165.4293212890625	149.8706512451172	1447.068237304688	598.8317260742188	145.1358642578125	1381.763549804688	667.4674072265625	158.9715423583984	1093.630981445312	715.2462158203125	99.00267028808594	1075.325439453125	701.0297241210938	283.0499572753906	871.5597534179688	652.6729125976562	254.9586334228516	854.4661254882812	727.2237548828125	171.8268737792969	1038.800170898438	721.5660400390625	275.4817199707031	709.107177734375	649.0838623046875	270.6941833496094	780.8565673828125	725.4866333007812	182.1076507568359	1670.140869140625	505.8363037109375	314.6183166503906	1674.771362304688	459.6170043945312	144.4905548095703	1665.766967773438	344.7611389160156	121.8700561523438	910.57421875	252.7776184082031	147.1533813476562	919.8123168945312	629.1942138671875	227.4334716796875	951.5986938476562	572.3032836914062	201.5734405517578	941.0054931640625	298.2489318847656	278.3494873046875	494.1705932617188	341.2847900390625	221.7289733886719	647.857177734375	292.0193176269531	234.8576049804688	34.57477188110352	439.9653625488281	243.3092803955078	242.0205230712891	392.9793701171875	453.9019165039062	43.67035675048828	413.2080688476562	397.9763488769531	45.09680557250977	470.6530456542969	342.2132873535156	40.22039413452148	381.2496337890625	194.5994567871094	34.81983947753906	516.4837036132812	145.5702667236328	480.7792663574219	626.1968383789062	178.0345153808594	769.3419799804688	633.3815307617188	-236.4180755615234	177.5340881347656	612.1241455078125	58.34055328369141	361.4765625	619.9620361328125	-74.25184631347656	38.89416122436523	574.8446044921875	-115.2713165283203	84.27504730224609	531.158447265625	-151.6727752685547	79.98048400878906	627.9091186523438	-273.4755554199219	216.4010467529297	555.9212646484375	313.9535522460938	780.0043334960938	665.1701049804688	276.4373779296875	1673.223022460938	320.6038513183594	
332	3.31	19.28688812255859	990.5701293945312	521.5293579101562	6.351227760314941	989.4652709960938	388.7651977539062	21.7432689666748	1090.43310546875	452.2733154296875	253.8677978515625	1273.310913085938	407.9815673828125	14.50607109069824	1215.40966796875	452.5291748046875	69.56818389892578	1489.147705078125	458.5451354980469	235.49853515625	1384.714233398438	410.094970703125	14.25675106048584	1365.284423828125	556.463134765625	15.04773330688477	1436.948852539062	377.3526916503906	90.54779052734375	1459.53857421875	273.6302185058594	51.51733016967773	1332.2197265625	204.1361389160156	39.58229064941406	1113.70654296875	180.8688049316406	-16.79782104492188	1109.709350585938	264.6115112304688	126.3093338012695	864.4523315429688	184.8028869628906	53.4067268371582	848.2780151367188	139.2021636962891	51.53454971313477	1026.943237304688	164.2725372314453	98.54155731201172	697.80419921875	194.1134338378906	56.83185195922852	787.5406494140625	145.1576690673828	122.8190155029297	784.7879638671875	163.3445739746094	157.7058563232422	1447.53076171875	597.486083984375	153.3705596923828	1382.104370117188	666.1019897460938	168.0071716308594	1093.896240234375	713.2788696289062	107.9112014770508	1075.600952148438	699.68115234375	291.4561157226562	872.103515625	649.2067260742188	264.2515258789062	854.8488159179688	723.951171875	181.069580078125	1039.086303710938	719.4879150390625	284.7917785644531	709.691162109375	645.5756225585938	280.5122985839844	781.3213500976562	722.0635375976562	189.6325378417969	1670.850219726562	504.302978515625	321.6712036132812	1675.633544921875	456.8096008300781	150.5317535400391	1666.452758789062	343.5585632324219	127.1244659423828	911.1141357421875	251.3813629150391	156.8710632324219	920.2177124023438	627.830322265625	236.525390625	952.555419921875	569.5897827148438	207.4578552246094	941.649658203125	295.9024658203125	281.6862487792969	493.7583312988281	340.3976440429688	226.0204467773438	647.8078002929688	291.104736328125	234.9682769775391	34.67755508422852	440.0367126464844	244.83056640625	241.9306030273438	392.6692504882812	454.1487121582031	43.12953186035156	413.3455505371094	398.1255798339844	44.82598114013672	470.7186584472656	342.2986755371094	40.18671417236328	381.1913757324219	194.6316223144531	34.92342376708984	516.531005859375	164.1004638671875	481.0312805175781	625.028076171875	190.5995178222656	770.06298828125	631.2606201171875	-222.8238067626953	184.9726409912109	618.3690795898438	75.70596313476562	362.6112976074219	619.98681640625	-64.05010223388672	41.49411010742188	577.7381591796875	-105.6277008056641	88.48442077636719	534.9381103515625	-139.3925170898438	85.98532104492188	632.5818481445312	-260.8046875	224.2577819824219	563.1248779296875	323.1633605957031	780.898193359375	661.2494506835938	282.23388671875	1674.05322265625	318.1476440429688	
